<?xml version="1.0" encoding="iso-8859-1"?>
<!-- Uploaded to: SVG Repo, www.svgrepo.com, Generator: SVG Repo Mixer Tools -->
<svg height="800px" width="800px" version="1.1" id="Layer_1" xmlns="http://www.w3.org/2000/svg" xmlns:xlink="http://www.w3.org/1999/xlink" 
	 viewBox="0 0 512.001 512.001" xml:space="preserve">
<path style="fill:#604730;" d="M368.962,121.583c8.845-15.169,3.719-34.635-11.45-43.481c-9.765-5.694-21.307-5.59-30.654-0.752
	c-0.393-10.517-5.988-20.614-15.753-26.308c-15.169-8.845-34.635-3.719-43.481,11.45c-8.845,15.169-3.719,34.635,11.45,43.481
	c0.651,0.38,1.311,0.723,1.977,1.052l-26.784,45.933c-33.49,3.717-74.919,36.47-91.849,65.505
	c-21.729,37.265-11.895,83.48,21.966,103.225c33.861,19.744,78.925,5.541,100.654-31.724c16.93-29.034,25.03-81.222,11.771-112.198
	l26.784-45.934c0.613,0.418,1.238,0.823,1.889,1.202C340.651,141.879,360.117,136.752,368.962,121.583z"/>
<path style="fill:#A9825A;" d="M456.404,346.956l-50.102-22.086c-27.526-81.067-105.932-139.565-198.373-139.565
	c-108.146,0-197.098,80.055-207.826,182.656c-0.557,5.331,1.175,10.647,4.764,14.628c3.59,3.98,8.7,6.244,14.06,6.244
	c12.937,0,423.529,0,433.552,0c10.44,0,18.904-8.464,18.904-18.904C471.384,359.98,465.508,350.969,456.404,346.956z"/>
<path style="fill:#7E6142;" d="M456.404,346.956l-50.102-22.086c-24.943-73.459-91.664-128.385-172.747-138.048v202.011H452.48
	c10.44,0,18.904-8.464,18.904-18.904C471.384,359.98,465.508,350.969,456.404,346.956z"/>
<path style="fill:#BA9B7D;" d="M502.688,165.72c12.416-12.416,12.416-32.546,0-44.963c-7.993-7.993-19.182-10.831-29.452-8.534
	c2.298-10.27-0.541-21.459-8.534-29.452c-12.416-12.416-32.546-12.416-44.963,0c-12.416,12.416-12.416,32.546,0,44.963
	c0.532,0.532,1.084,1.034,1.643,1.52l-37.599,37.599c-33.332-4.935-81.736,16.189-105.502,39.955
	c-30.503,30.503-32.761,77.699-5.046,105.414c27.717,27.717,74.912,25.457,105.414-5.046c23.766-23.766,44.89-72.17,39.955-105.502
	l37.599-37.599c0.486,0.56,0.988,1.11,1.52,1.643C470.142,178.136,490.272,178.136,502.688,165.72z"/>
<path style="fill:#00D9E1;" d="M426.022,445.109c-2.348,11.735-12.651,20.182-24.619,20.182H66.939
	c-11.967,0-22.272-8.447-24.619-20.182l-11.4-57.001h406.502L426.022,445.109z"/>
<path style="fill:#BA9B7D;" d="M130.542,245.407c13.607-17.842,17.668-37.25,8.513-49.028
	c-12.437-15.999-44.528-11.862-71.676,9.241c-22.131,17.203-30.666,40.095-31.09,57.01c-0.61,24.331,18.966,54.169,57.588,70.127
	c41.029,16.953,82.387,11.094,92.378-13.084C196.204,295.59,171.279,262.422,130.542,245.407z"/>
<path style="fill:#00A3AA;" d="M234.171,388.108v77.184h167.233c11.967,0,22.272-8.447,24.619-20.182l11.4-57.001H234.171z"/>
<path style="fill:#FBDBAC;" d="M418.608,201.675l37.599-37.599c0.486,0.56,0.988,1.11,1.52,1.643
	c12.416,12.416,32.546,12.416,44.963,0c12.416-12.416,12.416-32.546,0-44.963c-7.993-7.993-19.182-10.831-29.452-8.534
	c2.298-10.27-0.541-21.459-8.534-29.452c-12.416-12.416-32.546-12.416-44.963,0c-12.416,12.416-12.416,32.546,0,44.963
	c0.532,0.532,1.084,1.034,1.643,1.52l-37.599,37.598L418.608,201.675z"/>
<path style="fill:#E5C395;" d="M357.512,78.104c-9.765-5.694-21.307-5.59-30.654-0.752c-0.393-10.517-5.988-20.614-15.753-26.308
	c-15.169-8.845-34.635-3.719-43.481,11.45c-8.845,15.169-3.719,34.635,11.45,43.481c0.651,0.38,1.311,0.723,1.977,1.052
	l-26.784,45.933l42.542,24.806l26.784-45.934c0.613,0.418,1.238,0.823,1.889,1.202c15.169,8.845,34.635,3.719,43.481-11.45
	C377.807,106.415,372.681,86.949,357.512,78.104z"/>
<polygon style="fill:#00A3AA;" points="34.217,404.587 434.126,404.587 437.423,388.108 30.92,388.108 "/>
</svg>